<svg xmlns:dc="http://purl.org/dc/elements/1.1/" xmlns:cc="http://creativecommons.org/ns#" xmlns:rdf="http://www.w3.org/1999/02/22-rdf-syntax-ns#" xmlns:svg="http://www.w3.org/2000/svg" xmlns="http://www.w3.org/2000/svg" viewBox="0 0 20 20" fill="none"><metadata><rdf:RDF><cc:Work><dc:format>image/svg+xml</dc:format><dc:type rdf:resource="http://purl.org/dc/dcmitype/StillImage"/><dc:title>Pixel Art</dc:title><dc:creator><cc:Agent><dc:title>Plastic Jam</dc:title></cc:Agent></dc:creator><cc:license rdf:resource="https://github.com/dicebear/dicebear/blob/main/packages/%40dicebear/pixel-art/LICENSE"/></cc:Work></rdf:RDF></metadata><mask id="avatarsRadiusMask"><rect width="20" height="20" rx="0" ry="0" x="0" y="0" fill="#fff"/></mask><g mask="url(#avatarsRadiusMask)"><path d="M6 4V3h8v1h1v1h1v3h1v3h-1v2h-1v1h-1v1h-2v1h4v1h1v3H3v-3h1v-1h4v-1H6v-1H5v-1H4v-2H3V8h1V5h1V4h1Z" fill="rgba(162, 109, 61, 1)"/><path d="M6 3v1H5v1H4v3H3v3h1v2h1v1h1v1h8v-1h1v-1h1v-2h1V8h-1V5h-1V4h-1V3H6Z" fill="#fff" fill-opacity=".1"/><g/><g><g fill-rule="evenodd" clip-rule="evenodd"><path d="M6 7h1v2H5V8h1V7Zm7 0h1v2h-2V8h1V7Z" fill="#fff"/><path d="M7 7v1H6v1h2V7H7Zm7 0v1h-1v1h2V7h-1Z" fill="#000"/><path d="M7 7v1h1V7H7ZM6 8v1h1V8H6Zm8-1v1h1V7h-1Zm-1 1v1h1V8h-1Z" fill="#fff" fill-opacity=".5"/></g></g><g><g fill-rule="evenodd" clip-rule="evenodd"><path d="M7 5h1v1h1v1H8V6H7V5Zm6 0v1h-1v1h-1V6h1V5h1Z" fill="rgba(167, 137, 97, 1)"/><path d="M7 5h1v1h1v1H8V6H7V5Zm6 0v1h-1v1h-1V6h1V5h1Z" fill="#000" fill-opacity=".1"/></g></g><g><path d="M8 12h4v1H8v-1Z" fill="rgba(227, 93, 106, 1)"/></g><g><path d="M6 3v1H5v1H4v3h2V7h1V6h4V5h1V4h1v1h-1v1h1v1h1v1h2V5h-1V4h-1V3H6Z" fill="rgba(167, 137, 97, 1)"/></g><g><g fill-rule="evenodd" clip-rule="evenodd"><path d="M3 10v2h1v-2H3Zm13 0h1v2h-1v-2Z" fill="rgba(211, 211, 211, 1)"/><path d="M3 10v1h1v-1H3Zm13 0h1v1h-1v-1Z" fill="#fff" fill-opacity=".4"/></g></g><g/><g/><g><path fill-rule="evenodd" clip-rule="evenodd" d="M4 16v4h4v-1H7v-1H6v-1H5v-1H4Zm12 0v4h-4v-1h1v-1h1v-1h1v-1h1Z" fill="rgba(68, 197, 133, 1)"/></g></g></svg>